<mxfile host="app.diagrams.net" modified="2023-05-25T02:04:26.605Z" agent="Mozilla/5.0 (Macintosh; Intel Mac OS X 10_15_7) AppleWebKit/537.36 (KHTML, like Gecko) Chrome/113.0.0.0 Safari/537.36" version="21.3.3" etag="fx1-1ieLHhSyq4dMQcVN" type="github">
  <diagram name="第 1 页" id="aCC6pnRYH2_EHxmpgSvB">
    <mxGraphModel>
      <root>
        <mxCell id="0" />
        <mxCell id="1" parent="0" />
      </root>
    </mxGraphModel>
  </diagram>
</mxfile>
